
<?xml version="1.0" encoding="UTF-8"?>
<svg id="Layer_1" data-name="Layer 1" xmlns="http://www.w3.org/2000/svg" viewBox="0 0 813.54 283.46">
  <defs>
    <style>
      .cls-1 {
        fill: none;
      }

      .cls-2 {
        fill: #4c0e5f;
      }

      .cls-3 {
        fill: #5e6167;
      }

      .cls-4 {
        fill: #fff;
      }
    </style>
  </defs>
  <g>
    <g>
      <path class="cls-3" d="M442.2,70.8h14.71c4.01,0,6.88,1.16,8.52,3.57,1.04,1.43,1.52,3.05,1.52,4.89,0,2.17-.61,3.88-1.84,5.29-.6.72-1.55,1.38-2.67,2,1.71.68,2.99,1.4,3.86,2.25,1.53,1.47,2.31,3.56,2.31,6.15,0,2.21-.71,4.21-2.08,6-2.1,2.64-5.33,3.98-9.88,3.98h-14.45v-34.14ZM455.21,85.27c1.97,0,3.46-.3,4.58-.85,1.72-.88,2.56-2.39,2.56-4.63s-.91-3.7-2.75-4.51c-1.04-.46-2.55-.65-4.57-.65h-8.3v10.63h8.49ZM456.77,101.01c2.81,0,4.87-.84,6.1-2.5.74-1.04,1.13-2.27,1.13-3.76,0-2.5-1.13-4.15-3.37-5.06-1.19-.51-2.71-.7-4.69-.7h-9.23v12.03h10.04Z"/>
      <path class="cls-3" d="M478.65,70.8v21.1c0,2.48.45,4.55,1.42,6.2,1.39,2.46,3.71,3.72,7,3.72,3.91,0,6.62-1.37,8-4.06.77-1.45,1.17-3.39,1.17-5.86v-21.1h4.61v19.19c0,4.17-.52,7.43-1.67,9.66-2.04,4.14-5.97,6.17-11.75,6.17s-9.68-2.04-11.72-6.17c-1.16-2.23-1.68-5.48-1.68-9.66v-19.19h4.62Z"/>
      <path class="cls-3" d="M508.12,70.8h13.62c4.58,0,8.17,1.69,10.72,5,2.25,3.01,3.42,6.82,3.42,11.53,0,3.66-.68,6.91-2.03,9.84-2.3,5.16-6.43,7.77-12.16,7.77h-13.57v-34.14ZM520.82,101.01c1.54,0,2.8-.2,3.77-.49,1.73-.62,3.2-1.79,4.33-3.54.87-1.36,1.51-3.11,1.9-5.28.26-1.3.35-2.49.35-3.56,0-4.24-.83-7.52-2.47-9.89-1.65-2.36-4.26-3.49-7.94-3.49h-7.98v26.26h8.05Z"/>
      <path class="cls-3" d="M550.21,70.8h5.19l12.37,34.14h-5.04l-3.57-10.22h-13.33l-3.72,10.22h-4.72l12.82-34.14ZM557.83,90.97l-5.26-15.1-5.43,15.1h10.69Z"/>
      <path class="cls-3" d="M572.14,70.8h15.25c3.04,0,5.43.84,7.25,2.57,1.86,1.67,2.8,4.08,2.8,7.16,0,2.72-.83,5.03-2.45,7.05-1.65,1.94-4.17,2.94-7.59,2.94h-10.58v14.42h-4.67v-34.14ZM590.08,75.47c-1.07-.46-2.46-.71-4.17-.71h-9.1v11.84h9.1c1.99,0,3.71-.46,4.97-1.33,1.29-.89,1.94-2.45,1.94-4.69,0-2.48-.94-4.2-2.74-5.11"/>
      <polygon class="cls-3" points="602.7 70.8 627.39 70.8 627.39 74.95 607.22 74.95 607.22 85.33 625.84 85.33 625.84 89.32 607.22 89.32 607.22 100.84 627.75 100.84 627.75 104.94 602.7 104.94 602.7 70.8"/>
      <path class="cls-3" d="M635.89,93.91c.09,1.95.52,3.54,1.28,4.73,1.52,2.27,4.07,3.4,7.79,3.4,1.74,0,3.23-.22,4.61-.74,2.63-.98,3.95-2.73,3.95-5.15,0-1.89-.56-3.21-1.71-4-1.1-.8-2.91-1.45-5.3-2.03l-4.49-1.04c-2.94-.71-4.97-1.46-6.19-2.28-2.07-1.42-3.14-3.53-3.14-6.37,0-3.05,1.04-5.61,3.11-7.56,2.06-1.95,4.97-2.94,8.74-2.94,3.45,0,6.43.87,8.84,2.55,2.42,1.76,3.61,4.55,3.61,8.33h-4.32c-.22-1.85-.67-3.27-1.39-4.24-1.39-1.75-3.65-2.66-6.88-2.66-2.61,0-4.48.59-5.6,1.72-1.17,1.16-1.72,2.49-1.72,4.03,0,1.65.67,2.91,1.99,3.66.88.48,2.91,1.13,6,1.83l4.66,1.13c2.19.52,3.93,1.25,5.13,2.15,2.11,1.59,3.14,3.93,3.14,6.97,0,3.76-1.34,6.45-4.01,8.1-2.68,1.62-5.75,2.43-9.33,2.43-4.12,0-7.35-1.06-9.68-3.24-2.32-2.17-3.48-5.09-3.45-8.79h4.36Z"/>
      <polygon class="cls-3" points="688.47 70.8 688.47 74.83 676.98 74.83 676.98 104.94 672.33 104.94 672.33 74.83 660.87 74.83 660.87 70.8 688.47 70.8"/>
      <rect class="cls-3" x="693.19" y="70.8" width="4.65" height="34.14"/>
      <polygon class="cls-3" points="442.33 124.57 446.82 124.57 446.82 141.3 463.83 124.57 470.29 124.57 455.73 138.35 470.58 158.73 464.54 158.73 452.36 141.51 446.82 146.8 446.82 158.73 442.33 158.73 442.33 124.57"/>
      <path class="cls-3" d="M500.25,129.47c2.26,2.99,3.36,6.87,3.36,11.6,0,5.09-1.29,9.33-3.85,12.71-3.03,3.95-7.35,5.92-12.95,5.92-5.26,0-9.36-1.71-12.35-5.18-2.69-3.34-4.01-7.59-4.01-12.67,0-4.65,1.13-8.63,3.42-11.9,2.94-4.21,7.26-6.36,13.01-6.36s10.46,1.98,13.37,5.88M496.18,151.21c1.77-2.92,2.71-6.29,2.71-10.09,0-4.01-1.07-7.26-3.1-9.68-2.13-2.46-4.98-3.69-8.61-3.69s-6.41,1.2-8.6,3.63c-2.26,2.42-3.39,6.02-3.39,10.78,0,3.79.99,6.92,2.87,9.55,1.94,2.59,5.03,3.9,9.25,3.9s7.04-1.47,8.86-4.38M481.55,115.55h4.33v4.84h-4.33v-4.84ZM489.2,115.55h4.36v4.84h-4.36v-4.84Z"/>
      <polygon class="cls-3" points="505.18 154.9 526.11 128.64 506.73 128.64 506.73 124.57 532.07 124.57 532.07 128.53 511 154.64 532.07 154.64 532.07 158.73 505.18 158.73 505.18 154.9"/>
      <polygon class="cls-3" points="536.47 124.57 541.08 124.57 541.08 154.64 558.13 154.64 558.13 158.73 536.47 158.73 536.47 124.57"/>
      <polygon class="cls-3" points="562.84 124.57 587.49 124.57 587.49 128.76 567.32 128.76 567.32 139.13 586.01 139.13 586.01 143.08 567.32 143.08 567.32 154.64 587.88 154.64 587.88 158.73 562.84 158.73 562.84 124.57"/>
      <polygon class="cls-3" points="593.28 124.57 597.76 124.57 597.76 141.3 614.78 124.57 621.22 124.57 606.66 138.35 621.56 158.73 615.49 158.73 603.28 141.51 597.76 146.8 597.76 158.73 593.28 158.73 593.28 124.57"/>
      <polygon class="cls-3" points="625.57 124.57 650.25 124.57 650.25 128.76 630.01 128.76 630.01 139.13 648.74 139.13 648.74 143.08 630.01 143.08 630.01 154.64 650.58 154.64 650.58 158.73 625.57 158.73 625.57 124.57"/>
      <path class="cls-3" d="M656.12,124.54h13.6c4.58,0,8.17,1.68,10.71,5.01,2.3,3.01,3.39,6.88,3.39,11.58,0,3.64-.67,6.91-1.99,9.83-2.36,5.18-6.39,7.78-12.15,7.78h-13.56v-34.2ZM668.78,154.75c1.53,0,2.82-.14,3.82-.46,1.7-.62,3.16-1.78,4.29-3.5.87-1.36,1.51-3.14,1.9-5.29.23-1.3.33-2.48.33-3.59,0-4.26-.8-7.52-2.45-9.84-1.61-2.34-4.26-3.53-7.88-3.53h-8.04v26.22h8.04Z"/>
      <path class="cls-3" d="M690.15,124.57h24.7v4.19h-20.2v10.38h18.65v3.95h-18.65v11.56h20.52v4.09h-25.01v-34.17ZM707.97,115.14l-6.22,6.74h-3.17l4.27-6.74h5.13Z"/>
      <path class="cls-3" d="M723.33,147.71c.12,1.95.52,3.5,1.3,4.72,1.48,2.28,4.08,3.4,7.81,3.4,1.65,0,3.19-.29,4.56-.77,2.64-.97,3.96-2.66,3.96-5.16,0-1.88-.54-3.18-1.71-3.98-1.13-.77-2.91-1.44-5.29-2.02l-4.49-1.04c-2.95-.68-4.98-1.45-6.21-2.27-2.05-1.46-3.15-3.56-3.15-6.41,0-3.08,1.06-5.57,3.09-7.52,2.11-1.98,5.01-2.97,8.79-2.97,3.49,0,6.39.86,8.82,2.55,2.42,1.75,3.65,4.53,3.65,8.32h-4.34c-.19-1.82-.71-3.22-1.42-4.2-1.32-1.79-3.65-2.67-6.85-2.67-2.64,0-4.49.59-5.62,1.72-1.19,1.16-1.74,2.46-1.74,3.99,0,1.68.68,2.92,2.03,3.66.91.51,2.91,1.13,5.99,1.87l4.65,1.11c2.23.54,3.97,1.23,5.12,2.17,2.13,1.55,3.21,3.9,3.21,6.9,0,3.79-1.36,6.53-4.03,8.17-2.7,1.57-5.78,2.38-9.34,2.38-4.13,0-7.37-1.06-9.65-3.24-2.39-2.17-3.49-5.04-3.49-8.74h4.36Z"/>
      <rect class="cls-3" x="752.21" y="124.57" width="4.64" height="34.17"/>
      <polygon class="cls-3" points="442.33 178.34 446.82 178.34 446.82 195.06 463.83 178.34 470.29 178.34 455.73 192.1 470.58 212.49 464.54 212.49 452.36 195.31 446.82 200.6 446.82 212.49 442.33 212.49 442.33 178.34"/>
      <path class="cls-3" d="M500.25,183.22c2.26,3.03,3.36,6.91,3.36,11.57,0,5.13-1.29,9.39-3.85,12.78-3.03,3.94-7.35,5.96-12.95,5.96-5.26,0-9.36-1.78-12.35-5.25-2.69-3.34-4.01-7.58-4.01-12.67,0-4.64,1.13-8.56,3.42-11.88,2.94-4.2,7.26-6.34,13.01-6.34s10.46,1.95,13.37,5.83M496.18,205.02c1.77-2.92,2.71-6.3,2.71-10.12,0-4.02-1.07-7.26-3.1-9.69-2.13-2.41-4.98-3.69-8.61-3.69s-6.41,1.23-8.6,3.63c-2.26,2.43-3.39,6.02-3.39,10.75,0,3.8.99,7.01,2.87,9.6,1.94,2.6,5.03,3.9,9.25,3.9s7.04-1.49,8.86-4.37M481.55,169.33h4.33v4.84h-4.33v-4.84ZM489.2,169.33h4.36v4.84h-4.36v-4.84Z"/>
      <polygon class="cls-3" points="505.18 208.64 526.11 182.41 506.73 182.41 506.73 178.34 532.07 178.34 532.07 182.33 511 208.42 532.07 208.42 532.07 212.49 505.18 212.49 505.18 208.64"/>
      <path class="cls-3" d="M536.66,178.34h15.23c3.04,0,5.49.87,7.3,2.56,1.87,1.7,2.78,4.12,2.78,7.21,0,2.66-.81,5.01-2.5,6.97-1.64,1.98-4.12,2.99-7.55,2.99h-10.62v14.41h-4.65v-34.15ZM554.57,183.04c-.99-.46-2.4-.72-4.2-.72h-9.07v11.83h9.07c2.1,0,3.75-.46,5.03-1.34,1.25-.91,1.91-2.42,1.91-4.66,0-2.53-.91-4.22-2.74-5.11"/>
      <path class="cls-3" d="M595.66,183.22c2.3,3.03,3.39,6.91,3.39,11.57,0,5.13-1.29,9.39-3.87,12.78-3.04,3.94-7.33,5.96-12.91,5.96-5.26,0-9.4-1.78-12.37-5.25-2.67-3.34-4-7.58-4-12.67,0-4.64,1.13-8.56,3.39-11.88,2.97-4.2,7.28-6.34,13.05-6.34s10.45,1.95,13.32,5.83M591.6,205.02c1.81-2.92,2.72-6.3,2.72-10.12,0-4.02-1.04-7.26-3.14-9.69-2.05-2.41-4.93-3.69-8.58-3.69s-6.36,1.23-8.58,3.63c-2.26,2.43-3.37,6.02-3.37,10.75,0,3.8.98,7.01,2.87,9.6,1.93,2.6,5.01,3.9,9.27,3.9s7-1.49,8.81-4.37"/>
      <polygon class="cls-3" points="604.73 178.34 610.15 178.34 627.14 205.95 627.14 178.34 631.53 178.34 631.53 212.49 626.36 212.49 609.16 184.91 609.16 212.49 604.73 212.49 604.73 178.34"/>
      <polygon class="cls-3" points="663.55 178.34 663.55 182.41 652.09 182.41 652.09 212.49 647.41 212.49 647.41 182.41 635.95 182.41 635.95 178.34 663.55 178.34"/>
    </g>
    <g>
      <path class="cls-4" d="M325.98,56.69c-23.78,0-45.27,9.77-60.71,25.51H77.95c-11.74,0-21.26,9.52-21.26,21.26v76.54c0,11.74,9.52,21.26,21.26,21.26h187.32c15.43,15.74,36.92,25.51,60.71,25.51,46.97,0,85.04-38.07,85.04-85.04s-38.07-85.04-85.04-85.04Z"/>
      <g>
        <circle class="cls-2" cx="325.98" cy="141.73" r="25.51" transform="translate(-4.74 272.02) rotate(-45)"/>
        <path class="cls-2" d="M325.98,56.69c-23.78,0-45.27,9.77-60.71,25.51H77.95c-11.74,0-21.26,9.52-21.26,21.26v76.54c0,11.74,9.52,21.26,21.26,21.26h187.32c15.43,15.74,36.92,25.51,60.71,25.51,46.97,0,85.04-38.07,85.04-85.04s-38.07-85.04-85.04-85.04ZM325.98,221.1c-23.04,0-43.78-9.83-58.28-25.51H77.95c-8.61,0-15.59-6.98-15.59-15.59v-76.54c0-8.61,6.98-15.59,15.59-15.59h189.75c14.5-15.68,35.24-25.51,58.28-25.51,43.83,0,79.37,35.54,79.37,79.37s-35.54,79.37-79.37,79.37Z"/>
        <path class="cls-2" d="M128.76,144.4h-12.05v12.13h11.6c4.67,0,7.3-2.01,7.3-6.61,0-3.98-3.47-5.52-6.85-5.52Z"/>
        <path class="cls-2" d="M134.54,131.74c0-3.77-2.66-4.87-6.97-4.87h-10.85v9.92h11.11c3.73,0,6.71-1.45,6.71-5.05Z"/>
        <path class="cls-2" d="M325.98,70.87c-21.88,0-41.44,9.92-54.44,25.51H77.95c-3.91,0-7.09,3.17-7.09,7.09v76.54c0,3.91,3.17,7.09,7.09,7.09h193.59c13,15.59,32.56,25.51,54.44,25.51,39.14,0,70.87-31.73,70.87-70.87s-31.73-70.87-70.87-70.87ZM141.15,160.25c-2.59,2.54-5.02,4.15-14.36,4.15h-19.17v-45.33h22.06c11.08,0,13.93,6.89,13.93,11.57,0,6.51-3.66,8.32-5.57,9.31,5.57,2.08,7.04,6.51,7.04,10.98,0,3.59-1.49,7-3.93,9.33ZM186.59,164.4l-14.03-19.93-4.4,4.55v15.38h-9.49v-45.33h9.49v18.4l17.31-18.4h12.22l-18.51,18.53,19.58,26.8h-12.16ZM237.8,164.4l-13.96-19.93-4.45,4.55v15.38h-9.46v-45.33h9.46v18.4l17.32-18.4h12.21l-18.47,18.53,19.57,26.8h-12.21ZM325.98,178.58c-20.35,0-36.85-16.5-36.85-36.85s16.5-36.85,36.85-36.85,36.85,16.5,36.85,36.85-16.5,36.85-36.85,36.85Z"/>
      </g>
    </g>
  </g>
  <rect class="cls-1" width="813.54" height="283.46"/>
</svg>